<svg width="28" height="28" viewBox="0 0 28 28" fill="none" xmlns="http://www.w3.org/2000/svg">
<g clip-path="url(#clip0)">
<path d="M20.8257 10.0326L17.1381 0.619856C16.9332 0.11828 16.365 -0.127629 15.8591 0.0661632L6.44633 3.75376C5.94025 3.95406 5.6924 4.52672 5.89263 5.03279L9.60791 14.4456C9.80821 14.9516 10.3809 15.1995 10.8869 14.9993L20.272 11.3117C20.7781 11.1114 21.026 10.5387 20.8257 10.0326ZM10.5935 13.9196L6.99448 4.76148L16.1526 1.15694L19.7516 10.3206L10.5935 13.9196Z" fill="#777777"/>
<path d="M11.7343 15.9406H1.65159C1.10724 15.9406 0.666016 16.3818 0.666016 16.9262V27.0145C0.666016 27.5588 1.10724 28 1.65159 28H11.7343C12.2787 28 12.7199 27.5588 12.7199 27.0145V16.9262C12.7199 16.3818 12.2786 15.9406 11.7343 15.9406ZM11.6125 26.8871H1.7734V17.048H11.6125V26.8871Z" fill="#777777"/>
<path d="M26.623 15.8852L16.878 13.2939C16.3467 13.1643 15.8094 13.4846 15.671 14.0137L13.0797 23.7587C12.9389 24.2845 13.251 24.8249 13.7768 24.9656C13.777 24.9657 13.7772 24.9657 13.7773 24.9658L23.5223 27.5571C24.0481 27.6978 24.5885 27.3857 24.7292 26.8599C24.7293 26.8598 24.7293 26.8595 24.7294 26.8594L27.2985 17.0923C27.4409 16.573 27.1401 16.0355 26.623 15.8852ZM23.694 26.4054L14.1815 23.9082L16.7119 14.4013L26.2188 16.9317L23.694 26.4054Z" fill="#777777"/>
<path d="M16.6678 8.62627C16.5672 8.43497 16.4342 8.26264 16.2747 8.11688L13.5062 5.19891L13.1795 4.84454C13.0974 4.75941 13.0065 4.68335 12.9082 4.61753C12.8088 4.54991 12.6951 4.5063 12.576 4.49018C12.2926 4.47038 12.0156 4.58036 11.823 4.78917C11.7468 4.88261 11.6938 4.99259 11.6679 5.11032C11.6398 5.24874 11.6268 5.38986 11.6292 5.53112C11.6292 5.69169 11.6292 5.83012 11.6292 5.94639V9.97729C11.6403 10.1434 11.6495 10.2707 11.6569 10.3593C11.6611 10.4426 11.6779 10.5248 11.7067 10.603C11.7605 10.7329 11.8673 10.8336 12.0002 10.8798C12.135 10.9352 12.2861 10.9352 12.421 10.8798C12.5581 10.8408 12.6676 10.7375 12.7144 10.603C12.7559 10.3897 12.7708 10.172 12.7587 9.95514V9.16336L14.9458 8.30513L15.4663 8.85883L15.7044 9.09691C15.7722 9.16862 15.8484 9.23181 15.9314 9.28517C15.9937 9.32268 16.0638 9.34538 16.1362 9.35161C16.2176 9.3575 16.2991 9.34421 16.3743 9.31286C16.5044 9.25942 16.6094 9.15844 16.6678 9.03047C16.7229 8.90139 16.7229 8.75535 16.6678 8.62627ZM12.7089 8.22208L12.6314 5.70831L14.3146 7.59087L12.7089 8.22208Z" fill="#777777"/>
<path d="M8.07404 21.5384C8.6015 21.3414 8.94756 20.8334 8.93781 20.2705C8.93829 20.1081 8.91012 19.9469 8.85475 19.7943C8.80042 19.6429 8.71979 19.5023 8.61666 19.379C8.51499 19.2562 8.39332 19.1513 8.25676 19.0689C8.08684 18.9673 7.8988 18.8996 7.70306 18.8696C7.46671 18.8335 7.22786 18.8169 6.9888 18.8198H5.15053C4.95113 18.798 4.75138 18.8579 4.59683 18.9859C4.47052 19.1413 4.41086 19.3403 4.43073 19.5396V23.8806C4.41052 24.079 4.46803 24.2775 4.5913 24.4343C4.74571 24.5669 4.94836 24.629 5.15053 24.6059H6.91682C7.17463 24.5979 7.43162 24.5739 7.68645 24.5339C7.8954 24.5094 8.10027 24.4572 8.29552 24.3789C8.56891 24.265 8.80215 24.0723 8.96549 23.8252C9.13229 23.5642 9.21894 23.2601 9.21465 22.9503C9.22739 22.2653 8.74643 21.67 8.07404 21.5384ZM5.6101 19.7112H6.53477C6.85688 19.6946 7.17899 19.7435 7.48159 19.8552C7.69095 19.9563 7.81484 20.1775 7.79166 20.4089C7.7929 20.5393 7.75843 20.6676 7.69199 20.7799C7.61586 20.9286 7.48477 21.0418 7.32655 21.0955C7.10722 21.1589 6.87917 21.1869 6.65104 21.1785H5.58241L5.6101 19.7112ZM8.02421 22.8728C8.02421 23.4413 7.62922 23.7255 6.8393 23.7255H5.58241L5.6101 22.0423H6.81161C7.13054 22.0221 7.44878 22.0911 7.73075 22.2416C7.93403 22.3847 8.0458 22.6252 8.02421 22.8728Z" fill="#777777"/>
<path d="M22.9737 18.7866C22.8325 18.4372 22.606 18.1288 22.3148 17.8896C21.9936 17.6216 21.6145 17.4321 21.2074 17.3359C20.8472 17.2363 20.4711 17.2081 20.1 17.2529C19.7432 17.2964 19.3997 17.4153 19.0923 17.6017C18.7743 17.7975 18.5008 18.0578 18.2895 18.3658C18.0514 18.7163 17.877 19.1063 17.7745 19.5175C17.7026 19.7798 17.658 20.0488 17.6416 20.3203C17.6274 20.5743 17.6441 20.829 17.6915 21.0789C17.7361 21.3161 17.8105 21.5468 17.913 21.7655C18.0195 21.9898 18.1616 22.1955 18.3338 22.3745C18.5053 22.5502 18.7034 22.6978 18.9207 22.8119C19.1687 22.941 19.4306 23.0412 19.7014 23.1109C20.0483 23.2106 20.4118 23.2388 20.77 23.194C21.0718 23.1476 21.3604 23.0381 21.6171 22.8729C21.8293 22.7402 22.0167 22.5716 22.1708 22.3745C22.3019 22.2113 22.398 22.0228 22.4532 21.8208C22.4921 21.6904 22.474 21.5496 22.4034 21.4332C22.3361 21.3166 22.2241 21.2326 22.0933 21.2007C21.9654 21.1546 21.8231 21.1731 21.7113 21.2505C21.6043 21.3381 21.5126 21.4429 21.44 21.5606C21.268 21.8108 21.025 22.0037 20.7423 22.1143C20.4545 22.2081 20.1443 22.2081 19.8564 22.1143C19.5949 22.0635 19.3519 21.943 19.1532 21.7655C18.961 21.5468 18.8411 21.2741 18.8099 20.9848C18.7728 20.6123 18.8086 20.2362 18.9151 19.8774C19.0139 19.3214 19.2991 18.8157 19.7235 18.4433C20.0782 18.1672 20.5447 18.0806 20.9749 18.2107C21.2372 18.271 21.4749 18.4101 21.6559 18.6094C21.8331 18.8302 21.9546 19.0904 22.0103 19.368C22.0385 19.515 22.0889 19.6569 22.1598 19.7888C22.2312 19.888 22.3384 19.9555 22.4588 19.977C22.5853 20.012 22.7209 19.9898 22.8297 19.9161C22.9422 19.8481 23.0237 19.7388 23.0567 19.6116C23.1151 19.3346 23.0861 19.0463 22.9737 18.7866Z" fill="#777777"/>
</g>
<defs>
<clipPath id="clip0">
<rect width="28" height="28" fill="white"/>
</clipPath>
</defs>
</svg>
