<svg width="18" height="18" viewBox="0 0 18 18" fill="none" xmlns="http://www.w3.org/2000/svg">
<path d="M6.56843 0.32756C8.58785 -0.224315 10.8154 -0.0868201 12.7159 0.800731C14.7295 1.71483 16.3874 3.38468 17.2508 5.40443C17.9723 7.04962 18.1795 8.90343 17.8427 10.6624C17.5108 12.4025 16.6609 14.0438 15.4021 15.3059C13.8893 16.8402 11.7989 17.8301 9.627 17.9449C9.22303 18.0198 8.81252 18.0169 8.40864 17.9449C7.6594 17.9079 6.91015 17.7838 6.20503 17.5258C6.24629 17.228 6.29617 16.9322 6.36524 16.6392C6.90631 14.5758 7.99996 12.6347 9.6059 11.1971C10.3964 10.5069 11.2838 9.88855 12.2834 9.53865C12.6787 9.98148 13.2726 10.2129 13.8644 10.2148C14.4496 10.1616 15.0358 9.89528 15.3811 9.41254C15.7965 8.86645 15.8637 8.11165 15.644 7.47538C15.4368 6.88558 14.9034 6.45602 14.3134 6.27207C13.8251 6.19052 13.2907 6.18767 12.8504 6.44085C12.1893 6.77558 11.7855 7.49245 11.774 8.21785C7.9731 9.32634 4.63363 12.0781 3.02194 15.6775C2.49238 15.2547 2.03478 14.7435 1.65776 14.185C1.59732 13.2966 1.78151 12.4052 2.00216 11.5461C2.61978 9.33677 3.98109 7.31513 5.87291 5.97906C6.01969 5.88613 6.13673 6.07199 6.25089 6.13742C6.95121 6.72912 8.08323 6.69593 8.77012 6.09569C9.26418 5.65856 9.56733 4.97488 9.46468 4.31585C9.36779 3.54588 8.7778 2.84703 8.01416 2.646C7.22558 2.38808 6.32668 2.75221 5.85276 3.40365C5.55825 3.78389 5.46615 4.27413 5.47478 4.74351C3.1762 5.55709 1.15007 7.19091 0.00845761 9.33677C-0.0759644 7.40711 0.472779 5.44236 1.60288 3.86164C2.7704 2.15482 4.56533 0.887969 6.56843 0.32756Z" fill="#F8BD11"/>
</svg>
