<svg width="72" height="71" viewBox="0 0 72 71" fill="none" xmlns="http://www.w3.org/2000/svg">
<path d="M28.1112 46.8891C31.543 46.1756 33.5476 42.8798 33.5476 42.8798L34.0748 63.0285C34.0748 63.0285 32.1241 62.8548 30.5576 61.9752C29.4422 61.3489 28.3047 60.0399 27.3297 59.291C24.9852 57.4901 21.3157 56.3689 20.1604 55.8932C19.0051 55.4175 16.253 53.0391 16.253 53.0391C16.253 53.0391 12.6174 49.7772 11.8359 46.1756C11.0544 42.574 11.0884 39.9237 11.3602 38.9384C11.632 37.953 13.3989 32.5166 14.9618 27.6578C16.5248 22.799 15.6754 21.6778 15.6754 21.6778C15.6754 21.6778 14.8939 17.6344 10.9525 15.324C7.01109 13.0135 2.69594 11.9602 2.69594 11.9602C2.69594 11.9602 1.77853 10.3293 2.05035 8.73232C2.32217 7.13537 3.57934 6.69366 3.57934 6.69366C3.57934 6.69366 11.632 7.71299 16.4229 11.9602C21.2137 16.2074 21.1797 22.2554 21.2137 22.6291C21.2477 23.0029 21.6868 23.8184 24.5095 23.9203C27.3323 24.0222 27.9752 22.6291 27.9752 22.6291L24.7134 29.6965C24.7134 29.6965 24.1018 29.0509 23.2863 28.881C22.4709 28.7111 21.2817 28.949 21.2817 28.949C21.2817 28.949 18.4955 29.6965 18.3936 36.6959C18.2916 43.6953 21.3157 44.8505 21.3157 44.8505C21.3157 44.8505 24.6795 47.6027 28.1112 46.8891Z" fill="url(#paint0_linear)"/>
<path d="M64.9944 50.5247C65.3682 52.2236 65.4701 53.6167 65.2663 55.2476C65.0624 56.8785 64.077 58.9512 62.9558 60.5821C61.8345 62.213 59.1163 63.0285 59.1163 63.0285H46.001V0.37384H54.9711C54.9711 0.37384 55.6149 0.514097 56.0244 1.32521C56.322 1.91492 56.4321 2.41249 56.4321 3.53375C56.4321 4.65501 54.5293 6.38787 54.5293 6.38787C54.5293 6.38787 53.1363 7.74697 52.6606 8.69835C52.1849 9.64972 52.8984 10.4652 52.8984 10.4652C52.8984 10.4652 53.6216 11.0838 55.107 12.198C56.581 13.3038 58.5421 14.5624 59.4221 15.324C61.189 16.853 64.111 19.877 64.8925 21.2701C65.674 22.6631 67.5169 25.7923 68.2563 28.0656C68.7452 29.5687 68.8332 31.0711 68.698 31.4633C68.3582 32.4487 67.6447 33.1962 67.2709 33.434C66.8972 33.6719 64.6207 34.6912 62.9558 35.7445C61.2909 36.7978 60.0677 39.1423 60.0677 39.1423C60.0677 39.1423 59.1163 41.6226 60.0677 43.3895C61.0191 45.1563 62.5141 46.0737 63.1597 46.7532C63.8052 47.4328 64.6207 48.8259 64.9944 50.5247Z" fill="#A97456"/>
<path d="M28.1872 50.5247C27.8134 52.2236 27.7115 53.6167 27.9154 55.2476C28.1192 56.8785 29.1046 58.9512 30.2259 60.5821C31.3471 62.213 34.0653 63.0285 34.0653 63.0285H47.1807V0.37384H38.2106C38.2106 0.37384 37.5667 0.514097 37.1573 1.32521C36.8596 1.91492 36.7495 2.41249 36.7495 3.53375C36.7495 4.65501 38.6523 6.38787 38.6523 6.38787C38.6523 6.38787 40.0454 7.74697 40.5211 8.69835C40.9967 9.64972 40.2832 10.4652 40.2832 10.4652C40.2832 10.4652 39.56 11.0838 38.0747 12.198C36.6006 13.3038 34.6396 14.5624 33.7595 15.324C31.9927 16.853 29.0706 19.877 28.2891 21.2701C27.5076 22.6631 25.6647 25.7923 24.9254 28.0656C24.4364 29.5687 24.3484 31.0711 24.4836 31.4633C24.8234 32.4487 25.5369 33.1962 25.9107 33.434C26.2845 33.6719 28.561 34.6912 30.2259 35.7445C31.8908 36.7978 33.1139 39.1423 33.1139 39.1423C33.1139 39.1423 34.0653 41.6226 33.1139 43.3895C32.1626 45.1563 30.6676 46.0737 30.022 46.7532C29.3764 47.4328 28.561 48.8259 28.1872 50.5247Z" fill="#A97456"/>
<rect x="36" y="0.000305176" width="21" height="6" rx="3" fill="url(#paint1_linear)"/>
<rect x="28.7734" y="60.684" width="36.8317" height="4.41708" rx="2.20854" fill="url(#paint2_linear)"/>
<rect x="41.5498" y="69.9938" width="0.0679552" height="0.0679552" fill="#C4C4C4"/>
<path d="M46.6593 26.572L40.4956 37.0817C39.2004 39.3036 39.1003 42.1288 40.4956 44.5079C42.5931 48.0843 47.2588 49.3211 50.9168 47.2704C54.5748 45.2197 55.8399 40.6581 53.7424 37.0817L47.5786 26.572C47.375 26.2249 46.8629 26.2249 46.6593 26.572Z" fill="url(#paint3_linear)"/>
<defs>
<linearGradient id="paint0_linear" x1="2.29339" y1="9.39797" x2="48.0849" y2="54.3336" gradientUnits="userSpaceOnUse">
<stop stop-color="#CF9D80"/>
<stop offset="1" stop-color="#CF9D80" stop-opacity="0.8"/>
</linearGradient>
<linearGradient id="paint1_linear" x1="36.1921" y1="0.28833" x2="37.7661" y2="9.78329" gradientUnits="userSpaceOnUse">
<stop stop-color="#CF9D80"/>
<stop offset="1" stop-color="#CF9D80" stop-opacity="0.8"/>
</linearGradient>
<linearGradient id="paint2_linear" x1="29.1103" y1="60.8961" x2="29.6077" y2="68.0435" gradientUnits="userSpaceOnUse">
<stop stop-color="#CF9D80"/>
<stop offset="1" stop-color="#CF9D80"/>
</linearGradient>
<linearGradient id="paint3_linear" x1="39.626" y1="27.3653" x2="57.1805" y2="48.4128" gradientUnits="userSpaceOnUse">
<stop stop-color="#CF9D80"/>
<stop offset="1" stop-color="#CF9D80" stop-opacity="0.8"/>
</linearGradient>
</defs>
</svg>
