<svg width="22" height="27" viewBox="0 0 22 27" fill="none" xmlns="http://www.w3.org/2000/svg">
<path d="M12.4133 18.6438C9.24196 16.8681 6.82571 13.8659 5.78125 10.2642" stroke="#9B989B" stroke-linecap="round" stroke-linejoin="round"/>
<path d="M12.4134 18.5144C13.1279 18.4499 14.4836 17.1056 15.1981 17.0411C15.9001 16.9776 16.5985 17.1879 17.1533 17.6307C17.9552 18.2708 19.0278 19.1274 19.0366 19.1337C19.0423 19.1384 19.5877 19.5739 20.1789 20.0459C20.9897 20.6928 21.1255 21.8898 20.4808 22.7078L18.2971 25.6627C18.1368 25.8792 17.8766 26.0015 17.6112 25.9765C8.13615 25.0887 0.591797 16.9657 0.591797 7.10652C0.591797 5.33089 0.833266 3.6125 1.28446 1.9831C1.33078 1.81553 1.4666 1.68803 1.63417 1.65004L5.78131 1.0396C6.78986 0.826755 7.77551 1.4934 7.97275 2.52277C8.1169 3.27423 8.25012 3.9669 8.25116 3.97418C8.25325 3.98459 8.51501 5.34754 8.71016 6.36546C8.84547 7.07009 8.71173 7.79918 8.33755 8.40702C7.95609 9.02631 6.16485 9.64507 5.78339 10.2638" stroke="#9B989B" stroke-linecap="round" stroke-linejoin="round"/>
</svg>
