<svg width="28" height="28" viewBox="0 0 28 28" fill="none" xmlns="http://www.w3.org/2000/svg">
<g clip-path="url(#clip0)">
<path d="M8.75 3.0625C9.09778 3.06354 9.43101 3.20215 9.67693 3.44807C9.92285 3.69399 10.0615 4.02722 10.0625 4.375V7.4375H17.9375V4.375C17.9375 4.25897 17.8914 4.14769 17.8094 4.06564C17.7273 3.98359 17.616 3.9375 17.5 3.9375C17.384 3.9375 17.2727 3.98359 17.1906 4.06564C17.1086 4.14769 17.0625 4.25897 17.0625 4.375V5.6875H16.1875V4.375C16.1875 4.0269 16.3258 3.69306 16.5719 3.44692C16.8181 3.20078 17.1519 3.0625 17.5 3.0625C17.8481 3.0625 18.1819 3.20078 18.4281 3.44692C18.6742 3.69306 18.8125 4.0269 18.8125 4.375V17.0625H17.9375V14.4375H10.0625V17.0625H9.1875V4.375C9.1875 4.25897 9.14141 4.14769 9.05936 4.06564C8.97731 3.98359 8.86603 3.9375 8.75 3.9375C8.63397 3.9375 8.52269 3.98359 8.44064 4.06564C8.35859 4.14769 8.3125 4.25897 8.3125 4.375V5.6875H7.4375V4.375C7.43854 4.02722 7.57715 3.69399 7.82307 3.44807C8.06899 3.20215 8.40222 3.06354 8.75 3.0625ZM10.0625 13.5625H17.9375V11.375H10.0625V13.5625ZM10.0625 10.5H17.9375V8.3125H10.0625V10.5Z" fill="#777777"/>
<path d="M8.3125 14H0.875V14.875H8.3125V14Z" fill="#777777"/>
<path d="M27.125 14H19.6875V14.875H27.125V14Z" fill="#777777"/>
<path d="M2.0125 19.39C2.21279 19.1036 2.47922 18.8698 2.78916 18.7083C3.09911 18.5469 3.44343 18.4626 3.79291 18.4626C4.14238 18.4626 4.48671 18.5469 4.79665 18.7083C5.1066 18.8698 5.37302 19.1036 5.57331 19.39C5.92331 19.7658 6.17356 20.0375 6.71081 20.0375C7.24806 20.0375 7.49831 19.7663 7.84831 19.39C8.0483 19.1035 8.3145 18.8696 8.62428 18.7081C8.93405 18.5465 9.27826 18.4622 9.62762 18.4622C9.97699 18.4622 10.3212 18.5465 10.631 18.7081C10.9408 18.8696 11.207 19.1035 11.4069 19.39C11.7543 19.7658 12.0054 20.0371 12.5444 20.0371C13.0834 20.0371 13.3319 19.7658 13.6819 19.3896C13.8819 19.1032 14.1481 18.8693 14.4579 18.7078C14.7676 18.5464 15.1117 18.462 15.461 18.462C15.8103 18.462 16.1545 18.5464 16.4642 18.7078C16.7739 18.8693 17.0401 19.1032 17.2401 19.3896C17.5879 19.7658 17.8391 20.0371 18.3776 20.0371C18.9162 20.0371 19.1651 19.7658 19.5151 19.3896C19.721 19.1093 19.9884 18.8799 20.2968 18.7191C20.6052 18.5584 20.9463 18.4704 21.294 18.4621C21.6416 18.4705 21.9827 18.5585 22.291 18.7192C22.5992 18.88 22.8666 19.1093 23.0724 19.3896C23.4203 19.7658 23.6714 20.0371 24.2099 20.0371C24.7485 20.0371 24.9974 19.7658 25.3474 19.3896C25.5532 19.1095 25.8205 18.8804 26.1286 18.7197C26.4367 18.559 26.7776 18.471 27.125 18.4625V19.3375C26.5873 19.3375 26.3375 19.6088 25.9875 19.985C25.7818 20.2651 25.5147 20.4943 25.2066 20.655C24.8985 20.8158 24.5578 20.9039 24.2104 20.9125C23.8627 20.9042 23.5216 20.8162 23.2132 20.6554C22.9048 20.4946 22.6374 20.2653 22.4315 19.985C22.0841 19.6088 21.8326 19.3375 21.294 19.3375C20.7554 19.3375 20.5065 19.6088 20.1565 19.9846C19.9508 20.2648 19.6836 20.4941 19.3755 20.6549C19.0673 20.8158 18.7264 20.9039 18.3789 20.9125C18.0313 20.9042 17.6901 20.8162 17.3817 20.6554C17.0734 20.4946 16.806 20.2653 16.6001 19.985C16.2501 19.6088 16.0011 19.3375 15.4626 19.3375C14.924 19.3375 14.6751 19.6088 14.3251 19.985C14.1252 20.2714 13.8591 20.5053 13.5494 20.6667C13.2397 20.8282 12.8957 20.9126 12.5464 20.9126C12.1972 20.9126 11.8531 20.8282 11.5434 20.6667C11.2337 20.5053 10.9677 20.2714 10.7677 19.985C10.4177 19.6088 10.1688 19.3375 9.63025 19.3375C9.09169 19.3375 8.84275 19.6088 8.49275 19.985C8.29251 20.2714 8.02612 20.5052 7.71621 20.6667C7.4063 20.8282 7.06201 20.9125 6.71256 20.9125C6.36311 20.9125 6.01882 20.8282 5.70891 20.6667C5.399 20.5052 5.13262 20.2714 4.93237 19.985C4.58237 19.6092 4.33212 19.3375 3.79487 19.3375C3.25763 19.3375 3.00431 19.6088 2.65738 19.985C2.45096 20.2656 2.18296 20.4951 1.87397 20.6559C1.56498 20.8167 1.22323 20.9045 0.875 20.9125V20.0375C1.414 20.0375 1.666 19.7658 2.0125 19.39Z" fill="#777777"/>
<path d="M6.81695 28.108C6.31895 28.108 5.83595 28.042 5.36795 27.91C4.90595 27.772 4.53395 27.595 4.25195 27.379L4.74695 26.281C5.01695 26.479 5.33795 26.638 5.70995 26.758C6.08195 26.878 6.45395 26.938 6.82595 26.938C7.23995 26.938 7.54595 26.878 7.74395 26.758C7.94195 26.632 8.04095 26.467 8.04095 26.263C8.04095 26.113 7.98095 25.99 7.86095 25.894C7.74695 25.792 7.59695 25.711 7.41095 25.651C7.23095 25.591 6.98495 25.525 6.67295 25.453C6.19295 25.339 5.79995 25.225 5.49395 25.111C5.18795 24.997 4.92395 24.814 4.70195 24.562C4.48595 24.31 4.37795 23.974 4.37795 23.554C4.37795 23.188 4.47695 22.858 4.67495 22.564C4.87295 22.264 5.16995 22.027 5.56595 21.853C5.96795 21.679 6.45695 21.592 7.03295 21.592C7.43495 21.592 7.82795 21.64 8.21195 21.736C8.59595 21.832 8.93195 21.97 9.21995 22.15L8.76995 23.257C8.18795 22.927 7.60595 22.762 7.02395 22.762C6.61595 22.762 6.31295 22.828 6.11495 22.96C5.92295 23.092 5.82695 23.266 5.82695 23.482C5.82695 23.698 5.93795 23.86 6.15995 23.968C6.38795 24.07 6.73295 24.172 7.19495 24.274C7.67495 24.388 8.06795 24.502 8.37395 24.616C8.67995 24.73 8.94095 24.91 9.15695 25.156C9.37895 25.402 9.48995 25.735 9.48995 26.155C9.48995 26.515 9.38795 26.845 9.18395 27.145C8.98595 27.439 8.68595 27.673 8.28395 27.847C7.88195 28.021 7.39295 28.108 6.81695 28.108Z" fill="#777777"/>
<path d="M13.2132 21.7C13.7712 21.7 14.2542 21.793 14.6622 21.979C15.0762 22.165 15.3942 22.429 15.6162 22.771C15.8382 23.113 15.9492 23.518 15.9492 23.986C15.9492 24.448 15.8382 24.853 15.6162 25.201C15.3942 25.543 15.0762 25.807 14.6622 25.993C14.2542 26.173 13.7712 26.263 13.2132 26.263H11.9442V28H10.4862V21.7H13.2132ZM13.1322 25.075C13.5702 25.075 13.9032 24.982 14.1312 24.796C14.3592 24.604 14.4732 24.334 14.4732 23.986C14.4732 23.632 14.3592 23.362 14.1312 23.176C13.9032 22.984 13.5702 22.888 13.1322 22.888H11.9442V25.075H13.1322Z" fill="#777777"/>
<path d="M20.8227 26.65H17.8977L17.3397 28H15.8457L18.6537 21.7H20.0937L22.9107 28H21.3807L20.8227 26.65ZM20.3637 25.543L19.3647 23.131L18.3657 25.543H20.3637Z" fill="#777777"/>
</g>
<defs>
<clipPath id="clip0">
<rect width="28" height="28" transform="matrix(-1 0 0 1 28 0)" fill="white"/>
</clipPath>
</defs>
</svg>
