<svg width="18" height="18" viewBox="0 0 18 18" fill="none" xmlns="http://www.w3.org/2000/svg">
<path d="M0 9C0 13.9706 4.02944 18 9 18C13.9706 18 18 13.9706 18 9C18 4.02944 13.9706 0 9 0C4.02944 0 0 4.02944 0 9Z" fill="#7D3DAF"/>
<path d="M14.693 5.80214L14.6895 5.78792C14.4019 4.62552 13.1056 3.37821 11.9152 3.11871L11.9018 3.11595C9.97629 2.74862 8.02395 2.74862 6.09887 3.11595L6.08505 3.11871C4.895 3.37821 3.59871 4.62552 3.31078 5.78792L3.30762 5.80214C2.95215 7.42546 2.95215 9.0717 3.30762 10.695L3.31078 10.7092C3.58643 11.822 4.78619 13.012 5.93219 13.3393V14.6369C5.93219 15.1065 6.50451 15.3371 6.82996 14.9983L8.14462 13.6317C8.42975 13.6477 8.71503 13.6565 9.00032 13.6565C9.96958 13.6565 10.9392 13.5649 11.9018 13.3813L11.9152 13.3785C13.1056 13.119 14.4019 11.8717 14.6895 10.7093L14.693 10.6951C15.0485 9.0717 15.0485 7.42546 14.693 5.80214ZM13.6527 10.4596C13.4607 11.218 12.4764 12.1608 11.6944 12.3349C10.6706 12.5296 9.63871 12.6128 8.60784 12.5843C8.58734 12.5837 8.56763 12.5917 8.55333 12.6064C8.40704 12.7565 7.59344 13.5917 7.59344 13.5917L6.57244 14.6396C6.49779 14.7174 6.36666 14.6645 6.36666 14.557V12.4075C6.36666 12.372 6.3413 12.3418 6.30643 12.335C6.30623 12.335 6.30603 12.3349 6.30584 12.3349C5.5238 12.1607 4.53993 11.2179 4.34758 10.4596C4.02765 8.99227 4.02765 7.50481 4.34758 6.0375C4.53993 5.27916 5.5238 4.33636 6.30584 4.16218C8.09386 3.82211 9.90678 3.82211 11.6944 4.16218C12.4768 4.33636 13.4607 5.27916 13.6527 6.0375C13.973 7.50485 13.973 8.99231 13.6527 10.4596Z" fill="white"/>
<path d="M10.7013 11.4518C10.5811 11.4153 10.4665 11.3908 10.3601 11.3466C9.25748 10.8892 8.24272 10.299 7.43892 9.39433C6.98182 8.87988 6.62406 8.29908 6.32163 7.68443C6.17821 7.39294 6.05735 7.09004 5.93416 6.78911C5.82183 6.51469 5.98729 6.23118 6.16151 6.02441C6.32499 5.83036 6.53535 5.68186 6.76317 5.57241C6.94098 5.48698 7.11639 5.53623 7.24625 5.68695C7.527 6.0128 7.78487 6.35532 7.9937 6.73303C8.1221 6.96535 8.08687 7.24933 7.85415 7.40744C7.79759 7.44587 7.74605 7.49097 7.69336 7.53438C7.64715 7.57242 7.60366 7.61085 7.57199 7.66235C7.51408 7.75659 7.51132 7.86773 7.5486 7.97019C7.83559 8.75886 8.31931 9.37213 9.11312 9.70245C9.24014 9.75529 9.36772 9.81683 9.51406 9.79977C9.75913 9.77113 9.83848 9.50232 10.0102 9.36186C10.1781 9.22461 10.3926 9.2228 10.5734 9.33722C10.7543 9.45168 10.9296 9.57455 11.1039 9.69873C11.2749 9.82062 11.4452 9.93986 11.603 10.0788C11.7547 10.2124 11.807 10.3877 11.7215 10.569C11.5651 10.9011 11.3376 11.1774 11.0093 11.3538C10.9166 11.4035 10.8058 11.4196 10.7013 11.4518C10.5811 11.4153 10.8058 11.4196 10.7013 11.4518Z" fill="white"/>
<path d="M9.00318 5.19268C10.4454 5.23308 11.63 6.19021 11.8838 7.61606C11.9271 7.859 11.9425 8.1074 11.9617 8.35398C11.9698 8.4577 11.9111 8.55624 11.7991 8.55759C11.6835 8.55897 11.6315 8.46224 11.624 8.35856C11.6091 8.15334 11.5988 7.9472 11.5706 7.74367C11.4213 6.66931 10.5646 5.78047 9.49519 5.58974C9.33428 5.56103 9.16958 5.55348 9.00658 5.53638C8.90353 5.52556 8.76857 5.51932 8.74574 5.39123C8.72658 5.28384 8.81723 5.19833 8.91949 5.19284C8.94729 5.1913 8.97526 5.19256 9.00318 5.19268C10.4454 5.23308 8.97526 5.19256 9.00318 5.19268Z" fill="white"/>
<path d="M11.1947 8.03394C11.1923 8.05195 11.1911 8.09429 11.1805 8.13418C11.1422 8.27898 10.9227 8.29711 10.8722 8.15097C10.8572 8.1076 10.8549 8.05827 10.8549 8.01158C10.8543 7.70611 10.7879 7.40096 10.6339 7.13518C10.4756 6.86202 10.2336 6.63239 9.9499 6.49344C9.77833 6.40943 9.59277 6.35721 9.40473 6.32609C9.32254 6.3125 9.23948 6.30425 9.15689 6.29275C9.0568 6.27885 9.00336 6.21506 9.0081 6.11644C9.01253 6.02402 9.08007 5.95754 9.18078 5.96323C9.51177 5.98203 9.83145 6.05356 10.1257 6.20938C10.7241 6.52626 11.0659 7.02645 11.1657 7.69434C11.1702 7.7246 11.1774 7.75458 11.1797 7.78495C11.1854 7.85996 11.1889 7.93504 11.1947 8.03394C11.1923 8.05195 11.1889 7.93504 11.1947 8.03394Z" fill="white"/>
<path d="M10.2983 7.99902C10.1776 8.0012 10.113 7.93441 10.1006 7.82377C10.0919 7.74664 10.0851 7.66847 10.0667 7.59343C10.0305 7.44563 9.95189 7.30865 9.82755 7.21809C9.76886 7.17531 9.70235 7.14415 9.63267 7.12404C9.54416 7.09849 9.45225 7.10552 9.36394 7.08388C9.26804 7.06037 9.21499 6.98272 9.23008 6.89275C9.24379 6.81087 9.32345 6.74697 9.41291 6.75344C9.97207 6.79381 10.3717 7.08289 10.4287 7.74115C10.4328 7.7876 10.4375 7.83669 10.4272 7.88112C10.4095 7.9572 10.3532 7.99531 10.2983 7.99902C10.1776 8.0012 10.3532 7.99531 10.2983 7.99902Z" fill="white"/>
</svg>
