<svg width="81" height="15" viewBox="0 0 81 15" fill="none" xmlns="http://www.w3.org/2000/svg">
<path d="M17.9678 14.6073L20.4566 0.471191H24.3455L21.9344 14.6073H17.9678Z" fill="#3C58BF"/>
<path d="M17.9678 14.6073L21.1566 0.471191H24.3455L21.9344 14.6073H17.9678Z" fill="#293688"/>
<path d="M36.0112 0.62827C35.2334 0.314135 33.989 0 32.4334 0C28.5446 0 25.7446 1.96335 25.7446 4.79057C25.7446 6.91098 27.6891 8.01046 29.2446 8.71726C30.8001 9.42406 31.2668 9.89527 31.2668 10.5235C31.2668 11.4659 30.0224 11.9372 28.9335 11.9372C27.3779 11.9372 26.5224 11.7015 25.2002 11.1518L24.6558 10.9162L24.1113 14.1361C25.0446 14.5288 26.7557 14.9214 28.5446 14.9214C32.6668 14.9214 35.3889 12.9581 35.3889 9.9738C35.3889 8.32459 34.3778 7.06805 32.0445 6.04711C30.6446 5.3403 29.789 4.94763 29.789 4.24083C29.789 3.61256 30.489 2.98429 32.0445 2.98429C33.3667 2.98429 34.3001 3.21989 35.0001 3.53402L35.3889 3.69109L36.0112 0.62827Z" fill="#3C58BF"/>
<path d="M36.0112 0.62827C35.2334 0.314135 33.989 0 32.4334 0C28.5446 0 26.4446 1.96335 26.4446 4.79057C26.4446 6.91098 27.6891 8.01046 29.2446 8.71726C30.8001 9.42406 31.2668 9.89527 31.2668 10.5235C31.2668 11.4659 30.0224 11.9372 28.9335 11.9372C27.3779 11.9372 26.5224 11.7015 25.2002 11.1518L24.6558 10.9162L24.1113 14.1361C25.0446 14.5288 26.7557 14.9214 28.5446 14.9214C32.6668 14.9214 35.3889 12.9581 35.3889 9.9738C35.3889 8.32459 34.3778 7.06805 32.0445 6.04711C30.6446 5.3403 29.789 4.94763 29.789 4.24083C29.789 3.61256 30.489 2.98429 32.0445 2.98429C33.3667 2.98429 34.3001 3.21989 35.0001 3.53402L35.3889 3.69109L36.0112 0.62827Z" fill="#293688"/>
<path d="M42.7002 0.471191C41.7668 0.471191 41.0669 0.549726 40.678 1.49213L34.8447 14.6073H39.0447L39.8224 12.2513H44.8001L45.2668 14.6073H49.0001L45.7334 0.471191H42.7002ZM40.9113 9.89526C41.1446 9.18845 42.4668 5.73296 42.4668 5.73296C42.4668 5.73296 42.7779 4.86909 43.0113 4.31935L43.2446 5.65443C43.2446 5.65443 44.0224 9.18845 44.1779 9.97379H40.9113V9.89526Z" fill="#3C58BF"/>
<path d="M43.6335 0.471191C42.7002 0.471191 42.0002 0.549726 41.6113 1.49213L34.8447 14.6073H39.0447L39.8224 12.2513H44.8001L45.2668 14.6073H49.0001L45.7334 0.471191H43.6335ZM40.9113 9.89526C41.2224 9.10992 42.4668 5.73296 42.4668 5.73296C42.4668 5.73296 42.7779 4.86909 43.0113 4.31935L43.2446 5.65443C43.2446 5.65443 44.0224 9.18845 44.1779 9.97379H40.9113V9.89526Z" fill="#293688"/>
<circle cx="63.5" cy="7.5" r="7.5" fill="#EB001B"/>
<circle cx="73.5" cy="7.5" r="7.5" fill="#F79E1B"/>
<path fill-rule="evenodd" clip-rule="evenodd" d="M68.5 13.0902C70.0344 11.7169 71 9.72118 71 7.49993C71 5.27868 70.0344 3.28297 68.5 1.90967C66.9656 3.28297 66 5.27868 66 7.49993C66 9.72118 66.9656 11.7169 68.5 13.0902Z" fill="#FF5F00"/>
<path d="M10.8108 10.3664L10.4219 8.32453C9.72191 5.96852 7.46639 3.3769 4.97754 2.12036L8.47749 14.6858H12.6774L18.9773 0.549683H14.7774L10.8108 10.3664Z" fill="#3C58BF"/>
<path d="M10.8108 10.3664L10.4219 8.32453C9.72191 5.96852 7.46639 3.3769 4.97754 2.12036L8.47749 14.6858H12.6774L18.9773 0.549683H15.5552L10.8108 10.3664Z" fill="#293688"/>
<path d="M0 0.471191L0.69999 0.62826C5.6777 1.80627 9.09987 4.79055 10.4221 8.32457L9.02209 1.6492C8.78876 0.706793 8.08877 0.471191 7.23323 0.471191H0Z" fill="#FFBC00"/>
<path d="M0 0.471191C4.97771 1.6492 9.09987 4.71202 10.4221 8.24605L9.09987 2.67014C8.86654 1.72773 8.08877 1.178 7.23323 1.178L0 0.471191Z" fill="#F7981D"/>
<path d="M0 0.471191C4.97771 1.6492 9.09987 4.71202 10.4221 8.24605L9.48875 5.18323C9.25542 4.24082 8.94432 3.29841 7.85544 2.90574L0 0.471191Z" fill="#ED7C00"/>
<path d="M14.7 9.89526L12.0556 7.22511L10.8111 10.2094L10.5 8.24605C9.80004 5.89003 7.54452 3.29841 5.05566 2.04187L8.55561 14.6073H12.7555L14.7 9.89526Z" fill="#051244"/>
<path d="M21.9344 14.6074L18.59 11.1519L17.9678 14.6074H21.9344Z" fill="#051244"/>
<path d="M30.8779 9.73822C31.189 10.0524 31.3446 10.288 31.2668 10.6021C31.2668 11.5445 30.0224 12.0157 28.9335 12.0157C27.3779 12.0157 26.5224 11.7801 25.2002 11.2304L24.6558 10.9948L24.1113 14.2146C25.0446 14.6073 26.7557 15 28.5446 15C31.0335 15 33.0556 14.2932 34.2223 13.0366L30.8779 9.73822Z" fill="#051244"/>
<path d="M35.3887 14.6074H39.0442L39.8219 12.2514H44.7996L45.2663 14.6074H48.9996L47.6774 8.87442L43.0108 4.31946L43.2441 5.576C43.2441 5.576 44.0219 9.11002 44.1774 9.89536H40.9108C41.2219 9.11002 42.4663 5.73307 42.4663 5.73307C42.4663 5.73307 42.7775 4.86919 43.0108 4.31946" fill="#051244"/>
</svg>
